<svg xmlns="http://www.w3.org/2000/svg" version="1.1" xmlns:xlink="http://www.w3.org/1999/xlink" xmlns:svgjs="http://svgjs.dev/svgjs" width="1500" height="1500" viewBox="0 0 1500 1500"><rect width="1500" height="1500" fill="#ffffff"></rect><g transform="matrix(0.6666666666666666,0,0,0.6666666666666666,249.85778443113782,249.85778443113765)"><svg viewBox="0 0 334 334" data-background-color="#fafafa" preserveAspectRatio="xMidYMid meet" height="1500" width="1500" xmlns="http://www.w3.org/2000/svg" xmlns:xlink="http://www.w3.org/1999/xlink"><g id="tight-bounds" transform="matrix(1,0,0,1,0.04749999999998522,0.04750000000001364)"><svg viewBox="0 0 333.90454557049503 333.90454557049503" height="333.90454557049503" width="333.90454557049503"><g><svg></svg></g><g><svg viewBox="0 0 333.90454557049503 333.90454557049503" height="333.90454557049503" width="333.90454557049503"><g><path d="M0 166.952c0-92.205 74.747-166.952 166.952-166.952 92.205 0 166.952 74.747 166.953 166.952 0 92.205-74.747 166.952-166.953 166.953-92.205 0-166.952-74.747-166.952-166.953zM166.952 328.77c89.369 0 161.818-72.448 161.818-161.818 0-89.369-72.448-161.818-161.818-161.817-89.369 0-161.818 72.448-161.817 161.817 0 89.369 72.448 161.818 161.817 161.818z" data-fill-palette-color="tertiary" fill="#000000" stroke="transparent"></path><ellipse rx="160.27418187383762" ry="160.27418187383762" cx="166.95227278524752" cy="166.95227278524752" fill="#000000" stroke="transparent" stroke-width="0" fill-opacity="1" data-fill-palette-color="tertiary"></ellipse></g><g transform="matrix(1,0,0,1,70.27256591821362,71.17305217166896)"><svg viewBox="0 0 193.3594137340678 191.55844122715712" height="191.55844122715712" width="193.3594137340678"><g><svg viewBox="0 0 193.3594137340678 191.55844122715712" height="191.55844122715712" width="193.3594137340678"><g><svg viewBox="0 0 213.1584412271571 211.1730582305267" height="191.55844122715712" width="193.3594137340678"><g transform="matrix(1,0,0,1,0,148.40530766235653)"><svg viewBox="0 0 213.1584412271571 62.76775056817016" height="62.76775056817016" width="213.1584412271571"><g id="textblocktransform"><svg viewBox="0 0 213.1584412271571 62.76775056817016" height="62.76775056817016" width="213.1584412271571" id="textblock"><g><svg viewBox="0 0 213.1584412271571 62.76775056817016" height="62.76775056817016" width="213.1584412271571"><g transform="matrix(1,0,0,1,0,0)"><svg width="213.1584412271571" viewBox="2.71 -35.74 123.94000000000001 36.5" height="62.76775056817016" data-palette-color="#fafafa"><path d="M2.71-27L2.71-27Q2.71-30.86 6.03-33.3 9.35-35.74 13.7-35.74L13.7-35.74Q17.04-35.74 20.36-34.2L20.36-34.2Q21.46-33.72 22.85-32.64L22.85-32.64 21.14-28.96Q20.04-29.81 18.85-30.44L18.85-30.44Q16.04-31.93 13.7-31.96L13.7-31.96Q11.16-31.96 9.18-30.65 7.2-29.35 7.2-27L7.2-27Q7.2-26.05 7.58-25.24 7.96-24.44 8.89-23.73L8.89-23.73 10.3-22.63Q10.79-22.27 12.17-21.56 13.55-20.85 13.7-20.75L13.7-20.75 16.02-19.48Q17.7-18.55 18.31-18.14L18.31-18.14 20.14-16.92Q21.39-16.09 21.9-15.42 22.41-14.75 23.06-13.77 23.71-12.79 23.95-11.65 24.19-10.5 24.19-9.11L24.19-9.11Q24.19-4.91 20.7-2.08 17.21 0.76 12.7 0.76L12.7 0.76Q8.94 0.76 5.44-1.34L5.44-1.34Q3.91-2.25 2.71-3.49L2.71-3.49 4.44-7.25Q5.83-6.01 7.2-5.15L7.2-5.15Q10.4-3.05 12.7-3.05L12.7-3.05Q15.6-3.05 17.65-4.75 19.7-6.45 19.7-9.11L19.7-9.11Q19.7-11.45 17.96-13.31 16.21-15.16 13.7-16.43L13.7-16.43 8.69-19.04Q6.2-20.39 4.46-22.4 2.71-24.41 2.71-27ZM35.23 0L30.73 0 30.73-35.01 35.23-35.01 35.23 0ZM42.23-27L42.23-27Q42.23-30.86 45.55-33.3 48.87-35.74 53.22-35.74L53.22-35.74Q56.56-35.74 59.88-34.2L59.88-34.2Q60.98-33.72 62.37-32.64L62.37-32.64 60.66-28.96Q59.57-29.81 58.37-30.44L58.37-30.44Q55.56-31.93 53.22-31.96L53.22-31.96Q50.68-31.96 48.7-30.65 46.72-29.35 46.72-27L46.72-27Q46.72-26.05 47.1-25.24 47.48-24.44 48.41-23.73L48.41-23.73 49.82-22.63Q50.31-22.27 51.69-21.56 53.07-20.85 53.22-20.75L53.22-20.75 55.54-19.48Q57.22-18.55 57.83-18.14L57.83-18.14 59.66-16.92Q60.91-16.09 61.42-15.42 61.93-14.75 62.58-13.77 63.23-12.79 63.47-11.65 63.72-10.5 63.72-9.11L63.72-9.11Q63.72-4.91 60.22-2.08 56.73 0.76 52.22 0.76L52.22 0.76Q48.46 0.76 44.97-1.34L44.97-1.34Q43.43-2.25 42.23-3.49L42.23-3.49 43.96-7.25Q45.36-6.01 46.72-5.15L46.72-5.15Q49.92-3.05 52.22-3.05L52.22-3.05Q55.12-3.05 57.17-4.75 59.22-6.45 59.22-9.11L59.22-9.11Q59.22-11.45 57.48-13.31 55.73-15.16 53.22-16.43L53.22-16.43 48.21-19.04Q45.72-20.39 43.98-22.4 42.23-24.41 42.23-27ZM76.97-31.69L66.45-31.69 66.45-35.01 91.96-35.01 91.96-31.69 81.46-31.69 81.46 0 76.97 0 76.97-31.69ZM97.6 0L93.11 0 107.56-35.01 112.05-35.01 126.65 0 122.16 0 117.25-11.69 102.41-11.69 97.6 0ZM109.8-30.4L103.8-14.99 115.91-14.99 109.8-30.4Z" opacity="1" transform="matrix(1,0,0,1,0,0)" fill="#ffffff" class="wordmark-text-0" data-fill-palette-color="quaternary" id="text-0"></path></svg></g></svg></g></svg></g></svg></g><g transform="matrix(1,0,0,1,39.78554652396596,0)"><svg viewBox="0 0 133.5873481792252 133.5873481792252" height="133.5873481792252" width="133.5873481792252"><g><svg xmlns="http://www.w3.org/2000/svg" xmlns:xlink="http://www.w3.org/1999/xlink" version="1.1" x="0" y="0" viewBox="2 2 20 20" style="enable-background:new 0 0 24 24;" xml:space="preserve" height="133.5873481792252" width="133.5873481792252" class="icon-icon-0" data-fill-palette-color="quaternary" id="icon-0"><g fill="#fafafa" data-fill-palette-color="quaternary"><polygon points="2,2 2,4 6,4 6,10 12,10 18,10 18,4 22,4 22,2  " fill="#ffffff" data-fill-palette-color="quaternary"></polygon><path d="M2 17C2 19.8 4.2 22 7 22H22V20H7C5.3 20 4 18.7 4 17S5.3 14 7 14H22V12H7C4.2 12 2 14.2 2 17" fill="#ffffff" data-fill-palette-color="quaternary"></path><rect x="6" y="16" width="15" height="2" fill="#ffffff" data-fill-palette-color="quaternary"></rect><rect x="2" y="5" width="2" height="5" fill="#ffffff" data-fill-palette-color="quaternary"></rect></g></svg></g></svg></g><g></g></svg></g></svg></g></svg></g></svg></g><defs></defs></svg><rect width="333.90454557049503" height="333.90454557049503" fill="none" stroke="none" visibility="hidden"></rect></g></svg></g></svg>